<svg id="Layer_1" viewBox="0 0 24 24" xmlns="http://www.w3.org/2000/svg" data-name="Layer 1"><path d="m20 8c2.206 0 4-1.794 4-4s-1.794-4-4-4-4 1.794-4 4 1.794 4 4 4zm0-7c1.654 0 3 1.346 3 3s-1.346 3-3 3-3-1.346-3-3 1.346-3 3-3zm4 8.5v6c0 2.481-2.019 4.5-4.5 4.5h-7v3h5c.276 0 .5.224.5.5s-.224.5-.5.5h-11c-.276 0-.5-.224-.5-.5s.224-.5.5-.5h5v-3h-7c-2.481 0-4.5-2.019-4.5-4.5v-9c0-2.481 2.019-4.5 4.5-4.5h9c.276 0 .5.224.5.5s-.224.5-.5.5h-9c-1.93 0-3.5 1.57-3.5 3.5v9c0 1.93 1.57 3.5 3.5 3.5h15c1.93 0 3.5-1.57 3.5-3.5v-6c0-.276.224-.5.5-.5s.5.224.5.5zm-11.272.28-.95.701c-.391-.871-1.263-1.482-2.278-1.482h-4c-1.378 0-2.5 1.121-2.5 2.5v3c0 1.379 1.122 2.5 2.5 2.5h4c1.015 0 1.888-.611 2.279-1.482l.95.702c.251.186.547.279.845.279.764.013 1.444-.656 1.427-1.426v-4.146c0-.541-.3-1.028-.783-1.272-.482-.245-1.053-.195-1.489.126zm-3.228 6.22h-4c-.827 0-1.5-.673-1.5-1.5v-3c0-.827.673-1.5 1.5-1.5h4c.827 0 1.5.673 1.5 1.5v3c0 .827-.673 1.5-1.5 1.5zm4.267-5.453c.07.035.233.144.233.38v4.146c0 .236-.164.344-.234.38-.07.035-.255.103-.444-.038l-1.322-.978v-2.876l1.322-.976c.19-.141.374-.073.445-.038z"/></svg>